<?xml version="1.0" encoding="utf-8"?>
<!-- Generator: Adobe Illustrator 20.1.0, SVG Export Plug-In . SVG Version: 6.00 Build 0)  -->
<svg version="1.1" id="Capa_1" xmlns="http://www.w3.org/2000/svg" xmlns:xlink="http://www.w3.org/1999/xlink" x="0px" y="0px"
	 viewBox="50 20 100 125" style="enable-background:new 50 20 100 125;" xml:space="preserve">
<style type="text/css">
	.st0{fill:#004E91;}
	.st1{fill:#FBB908;}
</style>
<g>
	<g>
		
	
		<path class="st1" d="M113.7,23.3c1.5-5.9-63.7-5-71.6,44.7c-7.9,49.5,63.5,76.7,64.9,71.5c0,0-9.4-12.3-10.7-21.8
			c-1.5-9.3-1.9-14-1.9-14s-6.7,4.2-21.7-4.1c-15-8.3-16.2-18.9-15.9-18.9c0.3,0,9.4-9.5,16.9-12.6c7.6-3.1,13.2-3,13.2-3
			s-1.8-7.2,0.7-15.4C91.9,36,113.7,23.3,113.7,23.3"/>
		<path class="st0" d="M112.6,39.5c0,0,8.5,12.3,8.6,17.9c0,5.8-4.8,16.5-4.3,18.2c0.4,1.6,10.5-9.5,19.2-9.5
			c9.9,0.2,15.6,8.7,15.6,8.7s-8.2,17.3-12.6,17.6c-4.5,0.3-18.1-1.6-19-0.8c-0.7,0.8,7.9,12.2,4.3,17.9
			c-3.4,5.8-17.1,13.2-17.1,13.2s-5.2-9-5.8-14.8c-0.6-5.6,0.7-18.5,1.5-19.8c0.9-1.4-7.4,12.3-16.8,8.4
			c-9.4-3.9-20.9-13.6-20.9-13.6s15.4-10,18.7-10.3c3.3-0.5,13.2-0.8,13.2-0.8s-3.9-9.8-1.5-15.1C95.6,49.7,110.9,38.2,112.6,39.5"
			/>
		<path class="st1" d="M140.7,51.8c5.8,0,10.7-5,10.7-11.1c0-6.2-4.9-11.2-10.7-11.2c-5.8,0-10.7,5-10.7,11.2
			C130,46.8,134.9,51.8,140.7,51.8"/>


	</g>
	

</g>
</svg>
