<?xml version="1.0" encoding="utf-8"?>
<!-- Generator: Adobe Illustrator 20.1.0, SVG Export Plug-In . SVG Version: 6.00 Build 0)  -->
<svg version="1.1" id="Capa_1" xmlns="http://www.w3.org/2000/svg" xmlns:xlink="http://www.w3.org/1999/xlink" x="0px" y="0px"
	 viewBox="0 0 618.3 185.9" style="enable-background:new 0 0 618.3 185.9;" xml:space="preserve">
<style type="text/css">
	.st0{fill:#004E91;}
	.st1{fill:#FBB908;}
</style>
<g>
	<g>
		<path class="st0" d="M546.6,89.3c4,0,7.1-1.2,9.2-3.7c1.8-2.1,2.7-5,2.7-8.6c0-3.6-0.9-6.5-2.7-8.6c-2.1-2.5-5.2-3.7-9.2-3.7
			h-55.4v24.8H546.6z M548.9,51.2c11.9,0,20.1,3.9,24.6,11.6c2.2,3.9,3.3,8.6,3.3,14c0,11.1-4.3,18.7-13,22.7c-4.3,2-9.2,3-15,3
			h-57.7v31.6h-17.5v-83H548.9z"/>
		<path class="st0" d="M275.4,116.3c-6.4,0-11.5-1.8-15.2-5.3c-3.7-3.5-5.5-8.4-5.5-14.8c0-6.3,1.8-11.2,5.5-14.6
			c3.7-3.5,8.6-5.3,15-5.3h58.5v-3.1c0-4.3-1.6-6.9-4.8-7.8c-1-0.3-2.5-0.4-4.5-0.4h-65.5V51.2h69.8c6.9,0,12.4,1.8,16.4,5.4
			c2.5,2.2,4.2,4.8,5.1,7.8c0.6,2.2,0.9,8,0.9,12v39.8L275.4,116.3z M333.7,102.5V89.3h-55.9c-3.7,0-5.5,2.2-5.5,6.7
			c0,4.4,1.8,6.5,5.5,6.5H333.7z"/>
		<path class="st1" d="M113.7,23.3c1.5-5.9-63.7-5-71.6,44.7c-7.9,49.5,63.5,76.7,64.9,71.5c0,0-9.4-12.3-10.7-21.8
			c-1.5-9.3-1.9-14-1.9-14s-6.7,4.2-21.7-4.1c-15-8.3-16.2-18.9-15.9-18.9c0.3,0,9.4-9.5,16.9-12.6c7.6-3.1,13.2-3,13.2-3
			s-1.8-7.2,0.7-15.4C91.9,36,113.7,23.3,113.7,23.3"/>
		<path class="st0" d="M112.6,39.5c0,0,8.5,12.3,8.6,17.9c0,5.8-4.8,16.5-4.3,18.2c0.4,1.6,10.5-9.5,19.2-9.5
			c9.9,0.2,15.6,8.7,15.6,8.7s-8.2,17.3-12.6,17.6c-4.5,0.3-18.1-1.6-19-0.8c-0.7,0.8,7.9,12.2,4.3,17.9
			c-3.4,5.8-17.1,13.2-17.1,13.2s-5.2-9-5.8-14.8c-0.6-5.6,0.7-18.5,1.5-19.8c0.9-1.4-7.4,12.3-16.8,8.4
			c-9.4-3.9-20.9-13.6-20.9-13.6s15.4-10,18.7-10.3c3.3-0.5,13.2-0.8,13.2-0.8s-3.9-9.8-1.5-15.1C95.6,49.7,110.9,38.2,112.6,39.5"
			/>
		<path class="st1" d="M140.7,51.8c5.8,0,10.7-5,10.7-11.1c0-6.2-4.9-11.2-10.7-11.2c-5.8,0-10.7,5-10.7,11.2
			C130,46.8,134.9,51.8,140.7,51.8"/>
		<path class="st0" d="M240.9,51.2v13.6h-44.3c-1.3,0-2.5,0.1-3.5,0.2c-0.7,0.2-1.5,0.6-2.4,1.3c-1.5,1.4-2.3,3.6-2.3,6.6v2.9
			l52.4-0.2v13.7l-52.4,0.2V134H171V89.5h-11V75.8h11v-7.2c0-3.1,0.3-5.6,0.8-7.6c0.6-2.1,1.7-4,3.5-5.8c1.7-1.7,3.6-2.9,5.7-3.3
			c2-0.5,4.5-0.7,7.5-0.7L240.9,51.2z"/>
		<path class="st0" d="M171.4,156.7c0,5.3-1.7,6.7-4.8,6.7c-1.1,0-1.9-0.2-2.5-0.5l-0.4,1.4c0.6,0.3,1.8,0.6,2.9,0.6
			c3.4,0,6.5-1.7,6.5-7.8v-16.6h-1.7V156.7z"/>
		<path class="st0" d="M191.7,147.4H190v10.7c0,0.7-0.1,1.4-0.3,1.9c-0.7,1.7-2.6,3.5-5.1,3.5c-3.4,0-4.5-2.7-4.5-6.4v-9.6h-1.7v9.9
			c0,6.4,3.7,7.6,5.8,7.6c3,0,5-1.9,5.8-3.5h0.1l0.1,3.1h1.6c-0.1-1.3-0.1-2.7-0.1-4.2V147.4z"/>
		<path class="st0" d="M197.3,164.5h1.7v-10.6c0-0.5,0.1-1.1,0.2-1.5c0.7-2.2,2.7-4,5.1-4c3.5,0,4.7,2.8,4.7,5.9v10.1h1.7v-10.3
			c0-6.4-4.3-7.2-6-7.2c-2.8,0-5,1.5-5.9,3.5h-0.1l-0.1-3.1h-1.6c0.1,1.4,0.1,2.5,0.1,4.1V164.5z"/>
		<path class="st0" d="M216.9,144.3v3.1h-2.9v1.4h2.9v10.8c0,1.7,0.3,3.2,1.1,4.1c0.6,0.8,1.7,1.2,2.9,1.2c1,0,1.8-0.2,2.4-0.4
			l-0.2-1.3c-0.4,0.1-1.1,0.3-2,0.3c-1.8,0-2.5-1.4-2.5-3.5v-11.1h4.9v-1.4h-4.9v-3.8L216.9,144.3z"/>
		<path class="st0" d="M233.5,163.5c-3.5,0-6.2-3.2-6.2-7.5c0-3.7,2-7.6,6.3-7.6c4.5,0,6.3,4.3,6.3,7.4
			C239.9,160.3,237.1,163.5,233.5,163.5L233.5,163.5z M233.4,164.9c3.8,0,8.2-2.7,8.2-9.1c0-5.2-3.2-8.8-7.9-8.8
			c-4.2,0-8.1,3.2-8.1,9.1C225.6,161.4,229,164.9,233.4,164.9L233.4,164.9z"/>
		<path class="st0" d="M244.5,163.7c1.1,0.7,2.7,1.2,4.3,1.2c3.5,0,5.8-2,5.8-4.9c0-2.6-1.6-4-4.4-5.1c-2.3-1-3.5-1.7-3.5-3.5
			c0-1.6,1.1-3,3.3-3c1.7,0,2.8,0.6,3.4,1l0.6-1.4c-0.9-0.6-2.2-1.1-3.8-1.1c-3.3,0-5.3,2.1-5.3,4.6c0,2.1,1.5,3.6,4.3,4.7
			c2.5,1,3.6,2,3.6,3.9c0,1.8-1.3,3.2-4,3.2c-1.5,0-2.9-0.6-3.8-1.2L244.5,163.7z"/>
		<path class="st0" d="M277.8,162.4c-0.9,0.4-2.2,1-4.3,1c-4,0-6.8-2.9-6.8-7.4c0-4,2.4-7.5,6.9-7.5c1.9,0,3.2,0.5,4,1l0.6-1.4
			c-0.6-0.5-2.4-1.1-4.5-1.1c-5.1,0-8.8,3.7-8.8,9.1c0,5.1,3.3,8.7,8.2,8.7c2.5,0,4.3-0.7,5-1.1L277.8,162.4z"/>
		<path class="st0" d="M288.8,163.5c-3.5,0-6.2-3.2-6.2-7.5c0-3.7,2-7.6,6.3-7.6c4.5,0,6.3,4.3,6.3,7.4
			C295.2,160.3,292.4,163.5,288.8,163.5L288.8,163.5z M288.7,164.9c3.8,0,8.2-2.7,8.2-9.1c0-5.2-3.2-8.8-7.9-8.8
			c-4.2,0-8.1,3.2-8.1,9.1C280.9,161.4,284.3,164.9,288.7,164.9L288.7,164.9z"/>
		<path class="st0" d="M301.1,164.5h1.7v-10.6c0-0.5,0.1-1.1,0.2-1.5c0.7-2.2,2.7-4,5.1-4c3.5,0,4.7,2.8,4.7,5.9v10.1h1.7v-10.3
			c0-6.4-4.3-7.2-6-7.2c-2.8,0-5,1.5-5.9,3.5h-0.1l-0.1-3.1H301c0.1,1.4,0.1,2.5,0.1,4.1V164.5z"/>
		<path class="st0" d="M320.7,144.3v3.1h-2.9v1.4h2.9v10.8c0,1.7,0.3,3.2,1.1,4.1c0.6,0.8,1.7,1.2,2.9,1.2c1,0,1.8-0.2,2.4-0.4
			l-0.2-1.3c-0.4,0.1-1.1,0.3-2,0.3c-1.8,0-2.5-1.4-2.5-3.5v-11.1h4.9v-1.4h-4.9v-3.8L320.7,144.3z"/>
		<path class="st0" d="M330.9,164.5h1.7v-9.4c0-0.6,0-1.1,0.1-1.6c0.5-2.7,2.1-4.8,4.5-4.8c0.3,0,0.6,0,0.8,0v-1.6
			c-0.2,0-0.5-0.1-0.7-0.1c-2.3,0-4.1,1.7-4.8,3.8h-0.1l-0.1-3.5h-1.6c0.1,1.7,0.1,3.4,0.1,5.1V164.5z"/>
		<path class="st0" d="M350.3,159c0,0.3,0,0.7-0.2,1c-0.6,1.7-2.2,3.4-5.1,3.4c-1.8,0-3.4-1.1-3.4-3.6c0-4.1,4.9-4.7,8.7-4.6V159z
			 M352,153.7c0-3-1-6.7-5.9-6.7c-1.5,0-3.5,0.4-5,1.5l0.5,1.2c1.2-0.9,2.8-1.3,4.3-1.3c4.1,0,4.4,3.4,4.4,5v0.5
			c-7-0.1-10.4,2.3-10.4,6.3c0,2.3,1.6,4.7,5,4.7c2.7,0,4.6-1.5,5.5-2.8h0.1l0.3,2.5h1.6c-0.2-1.3-0.2-2.7-0.2-4.1V153.7z"/>
		<path class="st0" d="M365.3,154.4c0.3-2.6,1.9-6,5.7-6c4.1,0,5.1,3.6,5.1,6H365.3z M377.8,155.8c0.1-0.3,0.1-0.6,0.1-1
			c0-2.5-1.1-7.7-6.7-7.7c-4.4,0-7.7,3.6-7.7,9.3c0,5,3.1,8.6,8,8.6c3,0,4.7-0.7,5.4-1.1l-0.4-1.3c-1,0.5-2.2,1-4.7,1
			c-3.5,0-6.5-2.2-6.5-7.6H377.8z"/>
	</g>
	<rect x="382.1" y="139.2" class="st0" width="1.7" height="25.3"/>
	<g>
		<path class="st0" d="M408.5,161.5c-0.9,0.4-2.1,0.8-3.8,0.8c-3.4,0-6-2.5-6-6.4c0-3.6,2.1-6.5,6.1-6.5c1.7,0,2.9,0.4,3.6,0.8
			l0.7-2.4c-0.9-0.5-2.5-0.9-4.3-0.9c-5.6,0-9.3,3.9-9.3,9.2c0,5.3,3.4,8.8,8.6,8.8c2.3,0,4.1-0.6,5-1L408.5,161.5z"/>
		<path class="st0" d="M419.8,139.8l-3.1,5.1h2.2l4.3-5.1H419.8z M421.7,158.7c0,0.3,0,0.6-0.1,1c-0.5,1.5-2,2.9-4.2,2.9
			c-1.6,0-2.9-0.9-2.9-3c0-3.3,3.9-4,7.3-3.9V158.7z M424.7,153.9c0-3.4-1.3-7-6.6-7c-2.2,0-4.3,0.6-5.7,1.5l0.7,2.1
			c1.2-0.8,2.9-1.3,4.5-1.3c3.5,0,3.9,2.6,3.9,4v0.4c-6.7,0-10.4,2.2-10.4,6.4c0,2.5,1.8,5,5.3,5c2.5,0,4.3-1.2,5.3-2.6h0.1l0.3,2.2
			h2.8c-0.2-1.2-0.2-2.6-0.2-4.1V153.9z"/>
		<path class="st0" d="M429.7,164.5h3.1v-10.4c0-0.5,0.1-1.1,0.2-1.5c0.6-1.7,2.2-3.2,4.2-3.2c3,0,4,2.3,4,5.1v9.9h3.1v-10.3
			c0-5.9-3.7-7.3-6.1-7.3c-2.8,0-4.8,1.6-5.7,3.2h-0.1l-0.2-2.9h-2.8c0.1,1.4,0.1,2.9,0.1,4.7V164.5z"/>
		<path class="st0" d="M461.1,161.5c-0.9,0.4-2.1,0.8-3.8,0.8c-3.4,0-6-2.5-6-6.4c0-3.6,2.1-6.5,6.1-6.5c1.7,0,2.9,0.4,3.6,0.8
			l0.7-2.4c-0.9-0.5-2.5-0.9-4.3-0.9c-5.6,0-9.3,3.9-9.3,9.2c0,5.3,3.4,8.8,8.6,8.8c2.3,0,4.1-0.6,5-1L461.1,161.5z"/>
		<path class="st0" d="M466.7,154.2c0.2-2.2,1.6-5.1,4.8-5.1c3.5,0,4.4,3.1,4.3,5.1H466.7z M478.8,156.5c0.1-0.4,0.1-0.8,0.1-1.5
			c0-3.2-1.5-8.1-7.1-8.1c-5,0-8.1,4.1-8.1,9.3c0,5.2,3.2,8.7,8.5,8.7c2.7,0,4.7-0.6,5.8-1.1l-0.6-2.2c-1.1,0.5-2.5,0.9-4.8,0.9
			c-3.2,0-5.8-1.7-5.9-6H478.8z"/>
		<path class="st0" d="M482.7,164.5h3.1v-9.2c0-0.5,0-1,0.1-1.5c0.4-2.4,2-4,4.2-4c0.4,0,0.7,0,1.1,0.1v-3c-0.3,0-0.5-0.1-0.9-0.1
			c-2.1,0-4,1.5-4.8,3.8h-0.1l-0.1-3.4h-2.7c0.1,1.6,0.1,3.3,0.1,5.4V164.5z"/>
		<path class="st0" d="M397.6,116.3c-13.4,0-22-5.4-25.8-16.3c-1.5-4.2-2.2-8.6-2.2-13.2V51.2h19V85c0,4.5,1.4,8.1,4.2,10.7
			c2.2,2.1,5.4,3.1,9.6,3.1h54.7v17.5H397.6z"/>
	</g>
</g>
</svg>
